<svg xmlns="http://www.w3.org/2000/svg" xmlns:xlink="http://www.w3.org/1999/xlink" id="Layer_1" x="0px" y="0px" viewBox="0 0 210.3 384.2" style="enable-background:new 0 0 210.3 384.2;" xml:space="preserve"> <style type="text/css"> .st0{fill:#FFCA05;} </style> <g> <path class="st0" d="M210.3,114.1c0,0.6,0,1.1,0,1.7c-0.1,0.3-0.2,0.7-0.2,1c-0.9,8.2-1.8,16.4-2.6,24.6 c-1.2,11.6-2.5,23.1-3.7,34.7c-1.2,11.6-2.5,23.1-3.7,34.7c-0.3,3.2-0.7,6.4-1,9.7c-0.7,6.1-5.6,13-15.2,13.1 c-11.2,0.1-22.4,0.3-33.5,0.5c-5.7,0.1-11.3,0.2-17,0.2c-1.1,0-1.6,0.4-1.5,1.6c0.1,1.6,0.2,3.1,0.3,4.7c0,1.2,0.5,1.6,1.7,1.8 c10.5,1.4,20.9,3.4,31.1,6.2c5.9,1.6,11.8,3.5,17.3,6.4c2.9,1.5,5.5,3.2,7.7,5.7c1,1.2,1.4,2.5,0.9,3.9c-0.4,1.2-0.9,2.4-1.6,3.4 c-1.1,1.4-2.4,2.8-3.8,4c-5.5,4.6-11.8,8-18.3,11.2c-11.1,5.5-22.7,10.2-34.4,14.3c-1,0.4-1.5,0.9-1.7,2c-0.6,3.6-2.3,6.7-5.1,9.2 c-1.6,1.4-3.3,2.8-4.9,4.1c0.2,0.1,0.4,0.1,0.6,0c1.8-1,1.6-0.9,2.7,0.9c5,8.9,9.9,17.8,14.9,26.7c3.7,6.5,7.5,12.9,11.4,19.3 c0.6,1,0.5,1.5-0.6,2c-0.8,0.4-1.6,0.9-2.4,1.4c1.4-0.1,2.6-0.7,3.9-0.8c2.8-0.1,5.6-0.1,8.4,0c10.8,0.6,18.6,6,23.9,15.3 c1.3,2.3,0.2,4.4-2.4,4.5c-12.3,0.7-24.6,1.3-37,2c-0.9,0-1.7,0.1-2.6,0.2c-5.3,0-10.5,0-15.8,0c-0.7-0.1-1.3-0.1-2-0.2 c-2.3-0.2-4.5-0.5-6.8-0.7c-1.2-0.1-1.9-0.8-2.2-2c-1.1-3.4-0.9-6.6,0.7-9.8c1.7-3.3,4.5-5.6,7.7-7.3c1.1-0.6,1.3-1.2,1.1-2.4 c-1.8-7.7-3.5-15.3-5.3-23c-1.5-6.5-3-13.1-4.5-19.6c-0.2-1.1-0.6-1.3-1.6-0.9c-1.3,0.6-2.7,1-4.1,1.4c-10,3-20.2,3.6-30.5,2.8 c-3.3-0.3-6.7-0.4-9.7-2.3c0,0-0.1,0.1-0.1,0.2c0.3,0.3,0.6,0.6,1,0.8c1.5,0.7,1.7,1.9,1.7,3.4c-0.3,10.6,0.2,21.1,2.3,31.5 c1.7,8.5,4.3,16.6,9.4,23.8c0.1,0.2,0.2,0.4,0.3,0.8c-0.5,0.1-0.9,0.2-1.3,0.2c-10.3,0.5-20.5,1.1-30.8,1.3 c-12.8,0.3-25.6,0.4-38.5-0.4c-4.5-0.3-6.9-4.7-4.5-8.6c1.2-1.8,2.5-3.5,4.1-5c8.4-7.5,18.5-10,29.4-8.4c6.5,1,12.6,3.6,18.1,7.4 c0.3,0.2,0.7,0.4,1,0.6c0.1-0.1,0.1-0.2,0.2-0.3c-1.7-1.4-3.3-2.9-5-4.3c-0.8-0.6-1.1-1.2-0.9-2.2c1.1-6.9,2.1-13.8,3.2-20.7 c1.1-7.5,2.3-14.9,3.5-22.4c0.2-1.1-0.1-1.8-1-2.4c-1.6-1.2-3.1-2.5-4.6-3.8c-2.8-2.4-4.6-5.4-5-9c-0.4-4.2-0.6-8.4-0.9-12.5 c0-0.9-0.3-1.6-1-2.2c-2.7-2.2-5.4-4.4-8-6.6c-3.9-3.2-7.8-6.2-10.8-10.3c-3.6-4.8-4.7-10-2.6-15.7c1.3-3.8,3.9-6.5,7.2-8.7 c9.6-6,19.9-10.1,30.8-13c2.7-0.7,2.3-0.2,2.8-3.2c0.1-0.9-0.2-1.2-1.1-1.2c-6.1,0.1-12.1,0.2-18.2,0.1c-7.6-0.1-15.1-0.8-22.5-2.4 c-4.6-1-9.1-2.3-13-5c-2.4-1.6-4.2-3.7-4.7-6.6c-0.3-1.6-0.7-3.1-1-4.7c-2.7-15-3.6-30.2-5-45.4c-0.7-7.2-1.1-14.3-1.6-21.5 c-0.6-8.7-1-17.3-1.5-26c-0.1-1.7-0.1-1.7,1.6-2c15-2.7,30-5.4,44.9-8.1c20.9-3.7,41.8-7.4,62.7-11.1c1-0.2,1.6-0.6,2.2-1.5 c2.5-4.3,5.1-8.5,7.8-12.7c0.6-1,0.6-1.7,0.1-2.7c-3.4-6.5-6.8-13-10.1-19.5c-0.4-0.7-0.5-1.6-0.4-2.4c0.5-5.3,1-10.7,1.8-16 c0.3-2.3-0.2-3.4-2.2-4.7c-10.9-6.6-13-20.5-4.8-29.8C112-2,127.8-2.6,136.9,6.3c5.8,5.7,7.9,12.6,5.2,20.3 c-2.8,7.7-8.3,12.6-16.7,13.5c-1.7,0.2-3.5,0.1-5.3,0.1c-0.3,0-0.6,0-1,0c0.2,0.2,0.5,0.3,0.7,0.3c1.9,0.4,1.9,0.4,1.3,2.3 c-1.3,4.7-2.7,9.4-3.9,14.1c-0.2,0.8-0.2,1.8,0.1,2.6c2.3,6.9,4.7,13.8,7.1,20.6c0.3,1,0.2,1.7-0.4,2.5c-2.5,3.8-4.9,7.7-7.4,11.5 c-0.2,0.3-0.3,0.7-0.6,1.2c0.5,0,0.8-0.1,1.2-0.1c11.4-1.6,22.7-3.2,34.1-4.7c1.6-0.2,3.1-0.1,4.7,0.5 c16.2,5.8,32.4,11.7,48.6,17.4C207.4,109.6,209.5,111.1,210.3,114.1z M136.7,272.2c0,0.1,0,0.1,0,0.2c3.8-0.5,7.6-0.9,11.4-1.7 c2-0.4,3.9-1.2,5.6-2.2c2.9-1.7,3.4-4.7,1.1-7.2c-1.3-1.4-3-2.7-4.7-3.6c-4.8-2.7-10.1-4.1-15.5-5.4c-0.9-0.2-1.2,0.2-1.3,1 c-0.6,5.9-1.1,11.8-1.7,17.7c-0.1,0.8,0.3,1.2,1.1,1.2C134.1,272.2,135.4,272.2,136.7,272.2z M60,249.8c-0.6,0.1-0.9,0.1-1.3,0.2 c-3.8,1.4-7.6,2.8-11.4,4.3c-1.2,0.5-2.4,1.3-3.5,2.1c-1.5,1.1-1.8,2.5-0.7,4.1c0.7,1,1.6,1.9,2.6,2.6c2.9,2.1,6.2,3,9.7,3.5 c1,0.1,1.4-0.1,1.6-1.2c0.9-4.6,1.8-9.1,2.7-13.6C59.7,251.2,59.8,250.6,60,249.8z"></path> </g> </svg>